<?xml version="1.0" standalone="no"?>
<!DOCTYPE svg PUBLIC "-//W3C//DTD SVG 20010904//EN"
 "http://www.w3.org/TR/2001/REC-SVG-20010904/DTD/svg10.dtd">
<svg version="1.0" xmlns="http://www.w3.org/2000/svg"
 width="3500.000000pt" height="3500.000000pt" viewBox="0 0 3500.000000 3500.000000"
 preserveAspectRatio="xMidYMid meet">

<g transform="translate(0.000000,3500.000000) scale(0.100000,-0.100000)"
fill="#000000" stroke="none">
<path d="M16810 32479 c-2880 -138 -5584 -1064 -7940 -2717 -1188 -834 -2298
-1893 -3207 -3059 -457 -588 -919 -1286 -1287 -1948 -147 -263 -453 -877 -569
-1137 -590 -1332 -966 -2647 -1162 -4068 -19 -134 -33 -245 -32 -246 1 -1
3369 2149 7485 4777 4116 2629 7487 4779 7492 4779 5 0 3333 -2123 7397 -4718
4063 -2596 7389 -4718 7391 -4716 10 7 -90 643 -148 940 -736 3775 -2895 7119
-6043 9361 -1650 1175 -3540 2008 -5517 2432 -824 177 -1623 279 -2500 321
-245 11 -1113 11 -1360 -1z"/>
<path d="M17165 24994 c-22 -2 -105 -9 -185 -14 -206 -16 -513 -56 -735 -96
-2177 -397 -4061 -1731 -5173 -3664 -96 -166 -348 -667 -340 -675 2 -2 109 9
238 26 2993 382 6024 24 8825 -1043 1563 -595 3051 -1414 4400 -2423 236 -176
571 -440 728 -573 49 -41 92 -71 97 -66 10 12 47 354 61 576 15 242 6 910 -15
1133 -24 246 -61 511 -102 723 -505 2669 -2423 4862 -5004 5723 -569 189
-1083 295 -1745 360 -105 10 -966 21 -1050 13z m2794 -4961 l32 -103 122 0
122 0 -90 -65 c-49 -36 -93 -69 -97 -73 -4 -4 8 -56 27 -117 19 -60 33 -110
32 -111 -1 -1 -44 29 -96 67 -57 41 -99 65 -105 60 -76 -59 -169 -122 -173
-117 -3 3 9 51 26 106 18 55 29 105 26 110 -3 5 -45 37 -93 72 l-87 63 119 5
120 5 34 109 c18 60 37 105 42 100 4 -5 22 -55 39 -111z"/>
<path d="M13606 20350 c-3 -102 -9 -262 -13 -356 l-6 -171 189 -7 c104 -3 249
-9 322 -13 l132 -6 0 65 0 65 -52 7 c-29 3 -92 6 -139 6 -47 0 -139 3 -205 6
l-119 7 3 90 3 90 205 -7 204 -6 0 58 0 59 -61 7 c-34 3 -114 6 -178 6 -166 0
-161 -2 -161 82 l0 69 143 -5 c78 -4 188 -9 245 -12 l103 -5 -3 68 -3 68 -200
7 c-110 4 -245 8 -301 10 l-101 3 -7 -185z"/>
<path d="M12670 20412 c0 -65 3 -227 7 -360 l6 -240 186 5 c230 6 270 16 344
83 83 76 102 127 102 275 0 109 -2 125 -26 176 -34 72 -99 134 -166 159 -47
18 -78 20 -253 20 l-200 0 0 -118z m418 -33 c62 -30 95 -85 102 -168 11 -126
-19 -193 -104 -236 -44 -22 -63 -25 -163 -25 l-113 0 0 143 c0 78 -3 179 -7
225 l-6 82 123 0 c106 0 130 -3 168 -21z"/>
<path d="M11921 20484 c-96 -8 -176 -16 -179 -19 -3 -2 3 -162 13 -355 l19
-350 55 0 c31 0 61 4 67 8 8 5 9 42 2 131 -5 68 -7 125 -5 127 7 7 269 25 283
20 24 -9 62 -104 75 -184 l12 -74 45 6 c25 3 51 6 60 6 12 0 13 11 7 67 -9 85
-27 145 -59 193 -20 30 -22 39 -11 44 8 3 28 29 44 58 73 127 9 288 -130 328
-41 12 -73 11 -298 -6z m258 -125 c59 -21 79 -97 37 -145 -22 -27 -28 -28
-177 -40 -85 -6 -155 -11 -156 -9 -2 1 -6 42 -9 92 l-7 91 134 9 c74 6 137 11
140 11 3 1 20 -3 38 -9z"/>
<path d="M14559 20489 c-2 -5 -66 -704 -65 -705 1 -1 28 -4 62 -7 l61 -5 17
217 c10 119 20 223 23 231 3 8 27 -90 53 -218 26 -128 49 -234 51 -237 3 -2
28 -5 57 -7 l53 -3 87 224 c48 123 88 216 90 205 1 -10 -6 -113 -17 -229 -10
-115 -17 -212 -15 -214 2 -2 29 -4 61 -5 l58 -1 31 350 c17 193 30 351 29 352
-1 2 -42 6 -91 9 l-89 6 -85 -222 c-46 -122 -88 -224 -92 -226 -9 -6 -11 3
-59 246 -23 118 -45 218 -49 223 -7 8 -169 23 -171 16z"/>
<path d="M11013 20370 c-72 -36 -116 -82 -152 -160 -23 -48 -26 -68 -26 -155
0 -93 2 -105 33 -167 57 -116 176 -198 286 -198 114 0 228 76 283 188 25 51
28 68 28 157 0 91 -3 106 -32 167 -59 125 -154 190 -283 196 -68 3 -81 0 -137
-28z m204 -119 c52 -24 97 -85 113 -152 39 -162 -81 -309 -219 -268 -142 42
-197 254 -99 374 54 65 126 81 205 46z"/>
<path d="M16080 20243 c0 -4 -23 -138 -50 -298 -27 -159 -50 -299 -50 -310 0
-18 21 -24 256 -64 203 -34 258 -41 264 -30 9 13 24 99 18 104 -2 2 -91 18
-198 36 -107 18 -197 34 -199 35 -2 2 2 39 9 84 11 74 14 79 34 75 43 -10 310
-55 312 -52 1 1 5 28 9 59 8 66 26 57 -160 88 -182 31 -164 21 -153 82 5 29
10 54 11 55 1 0 90 -14 197 -32 107 -19 195 -33 196 -32 5 8 21 113 18 116 -2
2 -104 21 -226 42 -123 21 -238 41 -255 44 -18 3 -33 2 -33 -2z"/>
<path d="M17515 20027 c-16 -47 -183 -673 -180 -675 2 -2 29 -10 61 -18 38
-10 59 -12 63 -5 4 6 19 62 35 126 15 64 33 115 39 115 7 0 71 -16 142 -35
196 -52 282 -43 349 36 45 53 59 95 54 165 -5 73 -37 130 -96 168 -48 32 -461
141 -467 123z m245 -187 c105 -26 129 -35 153 -60 37 -41 36 -83 -2 -121 -16
-16 -40 -29 -53 -29 -23 0 -288 66 -295 74 -2 2 6 43 18 90 18 67 26 85 39 81
8 -2 71 -18 140 -35z"/>
<path d="M18427 19783 c-5 -9 -217 -659 -217 -666 0 -5 121 -40 124 -35 2 2
19 57 40 122 20 66 38 121 39 122 1 2 63 -16 136 -39 100 -32 136 -48 142 -62
13 -33 10 -137 -6 -195 -8 -30 -15 -56 -15 -57 0 0 27 -10 59 -21 l59 -20 18
71 c19 77 24 165 12 208 -7 24 -3 29 40 51 124 63 156 231 65 338 -46 53 -54
57 -284 129 -211 66 -206 65 -212 54z m241 -202 c145 -46 162 -59 162 -124 0
-45 -38 -87 -78 -87 -14 0 -86 19 -159 42 -101 31 -133 45 -133 58 0 14 21 82
45 149 3 7 11 11 18 8 8 -3 73 -24 145 -46z"/>
<path d="M12752 19629 c-720 -23 -1477 -95 -2192 -209 -102 -17 -197 -33 -212
-36 -25 -5 -28 -12 -62 -152 -94 -392 -159 -833 -187 -1270 -13 -211 -7 -911
10 -1092 62 -653 184 -1231 381 -1805 636 -1852 1988 -3399 3738 -4274 872
-436 1750 -682 2752 -773 229 -21 1046 -17 1275 5 393 39 752 98 1084 178
2376 572 4321 2259 5230 4536 55 139 181 495 181 513 0 5 -69 69 -152 142
-2297 2006 -5021 3345 -7988 3927 -1247 245 -2576 352 -3858 310z m-1241 -576
l33 -103 120 0 121 0 -90 -65 c-49 -36 -93 -69 -97 -73 -5 -5 8 -55 27 -112
19 -58 34 -108 33 -111 -2 -4 -45 24 -97 62 -58 42 -98 66 -105 60 -70 -54
-168 -122 -172 -118 -3 3 10 52 27 111 18 58 31 107 28 109 -2 2 -44 32 -93
68 l-90 64 119 5 119 5 35 108 c19 59 37 104 41 100 4 -4 23 -54 41 -110z
m8148 -1033 l22 -70 75 0 c41 0 74 -4 74 -8 0 -5 -25 -26 -55 -47 -30 -20 -55
-43 -55 -50 0 -6 9 -38 20 -70 11 -32 20 -62 20 -67 0 -6 -29 11 -65 36 l-64
47 -63 -46 c-34 -24 -63 -43 -65 -42 -2 2 8 36 21 75 l25 71 -59 43 c-33 24
-60 46 -60 51 0 4 33 7 74 7 l75 0 22 70 c13 39 26 70 29 70 3 0 16 -31 29
-70z m-4890 -651 l28 -84 98 -5 98 -5 -76 -55 c-43 -30 -77 -59 -77 -65 0 -5
12 -45 26 -88 14 -43 24 -81 21 -83 -3 -3 -37 17 -75 45 -38 28 -74 51 -79 51
-5 0 -40 -22 -78 -50 -38 -27 -73 -50 -77 -50 -4 0 -1 18 7 41 8 23 21 63 29
90 l15 50 -77 57 -77 57 97 3 97 3 27 82 c29 89 34 100 40 94 2 -2 17 -42 33
-88z m2856 -899 l29 -89 95 -3 96 -3 -72 -53 c-40 -30 -73 -60 -73 -67 0 -8
11 -49 25 -92 13 -42 23 -79 20 -81 -2 -2 -35 19 -73 47 -38 28 -75 51 -82 51
-7 0 -44 -23 -82 -51 -38 -28 -71 -49 -73 -47 -3 2 7 39 20 81 14 43 25 84 25
92 0 7 -33 37 -72 67 l-73 53 96 3 95 3 29 89 c16 50 32 90 35 90 3 0 19 -40
35 -90z m-4740 -210 l17 -50 54 0 c30 0 54 -4 54 -9 0 -4 -18 -21 -40 -36 -22
-15 -40 -31 -40 -35 0 -4 7 -27 15 -50 22 -62 20 -64 -31 -26 l-46 35 -43 -29
c-24 -17 -46 -30 -49 -30 -3 0 1 19 9 41 21 59 20 66 -25 95 -22 15 -40 31
-40 35 0 5 24 9 54 9 l54 0 17 50 c9 28 18 50 20 50 2 0 11 -22 20 -50z m-561
-462 l121 -3 -96 -70 -95 -69 33 -105 c18 -58 32 -108 31 -112 -2 -4 -42 21
-91 57 -48 35 -91 64 -96 64 -4 0 -48 -29 -97 -64 -49 -36 -90 -62 -92 -58 -1
4 14 54 33 112 19 57 31 106 27 109 -85 59 -172 126 -172 133 0 4 51 8 113 8
l113 0 28 88 c50 154 44 152 84 25 l35 -112 121 -3z m6171 -5 l27 -83 101 0
101 0 -82 -60 c-45 -33 -82 -62 -82 -63 0 -2 13 -42 29 -90 17 -48 26 -87 22
-87 -5 0 -39 23 -77 50 -38 28 -72 50 -77 50 -4 0 -42 -25 -83 -55 -41 -30
-74 -49 -74 -42 0 8 11 47 25 87 14 40 25 78 25 84 0 6 -35 36 -78 66 l-77 55
100 3 101 3 27 91 c16 50 32 87 36 82 5 -5 21 -46 36 -91z m-1631 -29 l23 -69
78 -5 78 -5 -61 -43 c-34 -24 -62 -47 -62 -51 0 -4 9 -34 20 -66 11 -33 19
-63 17 -68 -1 -4 -28 10 -59 32 -31 23 -59 41 -63 41 -4 0 -32 -18 -62 -40
-31 -22 -58 -38 -60 -36 -3 2 5 34 16 71 12 37 21 69 21 70 0 2 -28 23 -62 47
l-61 43 78 5 78 5 25 73 c13 40 26 71 28 69 2 -2 15 -35 28 -73z m-5619 -564
l28 -89 101 -3 101 -3 -77 -58 c-43 -31 -78 -60 -78 -65 0 -4 11 -43 25 -87
14 -44 25 -84 25 -88 0 -5 -24 8 -52 29 -29 21 -65 47 -80 57 l-26 20 -78 -57
c-43 -30 -79 -54 -81 -53 -2 2 11 43 27 92 17 49 30 90 30 91 0 1 -34 26 -75
56 -41 29 -75 56 -75 61 0 4 42 7 94 7 l94 0 28 83 c27 84 33 97 39 97 1 0 15
-40 30 -90z m6063 -51 c57 0 57 0 33 -17 -68 -47 -67 -45 -49 -101 9 -28 13
-51 9 -51 -5 0 -26 13 -48 29 l-41 30 -41 -31 c-23 -17 -44 -28 -46 -26 -3 3
2 26 11 52 9 26 15 48 13 50 -2 1 -22 16 -43 32 l-40 29 54 5 c52 5 53 6 67
45 7 22 16 47 19 55 4 9 14 -7 26 -42 l20 -58 56 -1z m-3454 -111 l101 -3 -77
-58 c-43 -32 -78 -64 -78 -71 0 -7 11 -46 25 -86 14 -40 25 -78 25 -82 0 -5
-36 16 -80 47 l-80 56 -76 -56 c-42 -31 -78 -55 -80 -52 -2 2 10 43 26 92 17
49 30 89 30 90 0 1 -34 26 -75 55 -41 29 -75 57 -75 62 0 4 42 8 94 8 l94 0
28 83 c14 45 29 86 32 92 3 5 19 -32 36 -82 l30 -92 100 -3z m9031 42 l36
-109 117 -3 117 -3 -93 -68 c-50 -37 -92 -71 -92 -75 0 -5 15 -54 34 -110 19
-56 31 -102 27 -102 -4 0 -47 29 -96 65 l-89 64 -65 -46 c-36 -26 -77 -55 -90
-65 -13 -10 -27 -18 -32 -18 -4 0 8 46 27 102 19 56 34 105 34 110 0 4 -42 38
-92 75 l-93 68 117 3 117 3 36 109 c20 61 38 110 40 110 2 0 20 -49 40 -110z
m1031 -145 l19 -65 77 0 c43 0 78 -3 78 -7 0 -5 -23 -23 -50 -42 -74 -50 -73
-49 -46 -129 14 -40 22 -72 18 -72 -4 0 -33 20 -66 45 l-58 44 -64 -45 c-35
-25 -64 -42 -64 -38 0 4 9 38 21 76 11 39 19 71 17 72 -2 1 -30 22 -63 46
l-60 45 81 3 80 3 23 70 c12 38 26 67 30 64 5 -2 17 -34 27 -70z m-731 -555
l29 -89 99 -3 100 -3 -77 -54 c-42 -30 -76 -59 -76 -65 0 -6 11 -47 25 -90 14
-44 23 -82 20 -84 -2 -2 -36 19 -74 47 -39 28 -75 51 -79 51 -5 0 -43 -25 -86
-55 -42 -30 -76 -51 -76 -47 0 5 13 47 29 95 l30 87 -82 60 -81 60 101 0 101
0 28 90 c15 50 30 90 34 90 3 0 19 -40 35 -90z m-5555 -35 l34 -104 120 -3
121 -3 -85 -63 c-47 -35 -91 -67 -98 -71 -9 -5 -4 -32 23 -111 19 -58 34 -108
33 -112 -2 -5 -43 21 -92 57 -50 36 -93 65 -96 65 -3 0 -46 -29 -96 -65 -49
-36 -90 -62 -92 -57 -1 4 14 54 33 112 27 79 32 106 23 111 -7 4 -51 36 -98
71 l-85 63 121 3 120 3 34 104 c19 58 37 105 40 105 3 0 21 -47 40 -105z
m-4134 2 l21 -62 76 -3 c42 -2 77 -6 77 -11 0 -4 -27 -27 -60 -50 -33 -23 -60
-43 -60 -45 0 -1 11 -35 24 -74 14 -40 22 -72 18 -72 -4 1 -34 20 -66 44 l-59
43 -60 -44 c-33 -24 -62 -41 -64 -39 -3 3 5 35 17 72 l23 68 -34 29 c-19 15
-46 36 -61 45 -16 9 -28 20 -28 24 0 4 36 8 80 8 l79 0 22 71 c12 38 24 67 28
64 3 -4 15 -34 27 -68z m9229 -567 l28 -89 101 -3 101 -3 -75 -54 c-41 -30
-77 -55 -79 -57 -2 -2 8 -43 23 -91 14 -49 26 -92 26 -96 0 -4 -35 18 -77 49
-87 65 -71 66 -184 -15 -55 -39 -60 -41 -53 -20 4 13 17 57 30 96 l22 73 -73
52 c-41 29 -74 56 -74 61 -1 4 41 7 93 7 l94 0 28 83 c27 84 33 97 39 97 1 0
15 -40 30 -90z m-8104 -47 l35 -108 118 -3 118 -3 -43 -31 c-24 -17 -67 -49
-96 -70 l-52 -38 35 -102 c19 -56 33 -106 31 -111 -1 -4 -44 22 -95 58 l-92
67 -92 -67 c-51 -36 -94 -62 -95 -58 -2 5 12 55 31 111 l35 102 -52 38 c-29
21 -72 53 -96 70 l-43 31 118 3 118 3 35 108 c19 59 38 107 41 107 3 0 22 -48
41 -107z m6823 -295 l81 -3 -60 -44 c-33 -24 -62 -45 -64 -47 -2 -2 8 -37 22
-78 14 -42 23 -76 20 -76 -4 0 -29 17 -57 38 -28 21 -56 41 -62 45 -6 3 -39
-14 -72 -38 -34 -25 -64 -45 -66 -45 -3 0 7 34 21 76 14 41 24 76 22 77 -2 2
-31 23 -64 47 l-60 45 80 3 80 3 24 77 24 77 25 -77 26 -77 80 -3z m-2173 2
l23 -69 80 -3 81 -3 -60 -45 c-33 -24 -62 -46 -64 -47 -3 -2 5 -34 17 -71 12
-38 22 -72 22 -76 0 -4 -29 13 -64 38 l-63 45 -61 -44 c-34 -25 -64 -45 -66
-45 -3 0 6 32 19 71 14 39 23 74 21 78 -2 3 -29 24 -60 46 -31 22 -56 43 -56
47 0 4 34 8 77 10 l76 3 19 55 c25 77 27 80 32 80 3 0 15 -31 27 -70z m2848
-70 l22 -70 75 0 c41 0 74 -4 74 -9 0 -6 -27 -28 -59 -51 l-59 -42 24 -71 c13
-38 22 -72 20 -75 -3 -2 -29 15 -60 37 -30 23 -60 41 -66 41 -6 0 -36 -18 -66
-41 -31 -22 -57 -39 -60 -37 -2 3 7 37 20 75 l24 71 -59 42 c-32 23 -59 45
-59 51 0 5 33 9 74 9 l75 0 22 70 c13 39 26 70 29 70 3 0 16 -31 29 -70z
m-1610 -122 l22 -67 77 -3 77 -3 -62 -44 c-35 -24 -63 -45 -63 -46 0 -1 11
-34 24 -73 14 -40 21 -72 17 -72 -4 0 -32 18 -61 40 -29 22 -57 40 -62 40 -5
0 -34 -18 -64 -41 -31 -22 -57 -39 -59 -37 -3 2 4 33 15 69 11 35 20 67 20 71
0 3 -28 27 -62 52 l-62 46 80 0 80 0 24 75 c13 42 27 72 31 68 3 -5 16 -38 28
-75z m871 -443 l26 -80 99 -5 99 -5 -74 -54 c-41 -30 -76 -56 -78 -57 -2 -1 9
-41 24 -88 14 -48 24 -89 21 -92 -3 -3 -37 17 -75 45 -38 28 -73 51 -77 51 -4
0 -39 -23 -77 -51 -38 -28 -72 -48 -75 -46 -2 3 7 44 22 92 14 48 25 88 23 89
-2 1 -37 27 -78 57 l-74 54 99 5 99 5 30 93 c17 51 33 87 35 80 3 -7 17 -49
31 -93z m-1511 -176 l28 -84 96 -3 c54 -1 97 -6 97 -10 0 -4 -34 -31 -75 -60
-41 -29 -75 -56 -75 -61 0 -4 13 -46 29 -94 17 -48 27 -87 24 -87 -3 0 -35 22
-72 48 -36 27 -71 52 -77 55 -7 4 -46 -18 -87 -48 -41 -30 -78 -55 -80 -55 -3
0 7 39 24 87 16 48 29 90 29 94 0 5 -34 32 -75 61 -41 29 -75 56 -75 60 0 4
44 9 97 10 l96 3 30 88 c16 49 31 86 33 84 3 -2 17 -42 33 -88z m1492 -604
l22 -74 81 -3 81 -3 -60 -44 c-33 -24 -62 -45 -64 -47 -2 -2 8 -37 22 -78 14
-42 23 -76 21 -76 -3 0 -28 17 -57 38 -29 21 -57 41 -63 45 -6 3 -39 -14 -72
-38 -34 -25 -64 -45 -66 -45 -3 0 7 34 21 76 14 41 24 76 22 78 -2 2 -31 23
-64 47 l-60 44 81 3 80 3 22 74 c12 41 24 75 27 75 2 0 14 -34 26 -75z m-3755
-317 c9 -29 14 -34 52 -38 l42 -5 -30 -20 c-33 -22 -35 -30 -20 -69 7 -20 6
-26 -4 -26 -7 0 -19 7 -26 15 -7 8 -20 15 -30 15 -10 0 -23 -7 -30 -15 -7 -8
-19 -15 -26 -15 -10 0 -11 6 -4 26 15 39 13 47 -20 69 l-30 20 42 5 c38 4 43
9 52 38 5 17 12 32 16 32 4 0 11 -15 16 -32z"/>
<path d="M19400 19388 c-77 -30 -169 -123 -200 -203 -36 -89 -35 -219 1 -295
37 -78 71 -114 141 -149 162 -81 351 -4 441 179 29 59 32 73 32 160 0 82 -4
103 -26 151 -31 65 -82 120 -142 151 -62 32 -175 35 -247 6z m190 -128 c102
-52 128 -188 60 -308 -96 -166 -304 -143 -342 39 -22 105 40 226 137 270 52
24 97 24 145 -1z"/>
<path d="M20245 19031 c-261 -124 -293 -512 -51 -636 47 -24 71 -29 125 -30
36 0 81 4 99 8 l34 9 -16 -31 c-9 -16 -16 -36 -16 -44 0 -13 77 -53 86 -44 2
2 35 75 73 162 l69 159 -121 53 c-66 29 -124 50 -128 46 -4 -5 -14 -25 -23
-46 l-16 -39 50 -21 c28 -11 50 -24 50 -28 0 -13 -48 -38 -93 -50 -141 -35
-246 113 -192 272 66 194 315 214 365 29 9 -34 17 -42 66 -64 31 -14 61 -26
67 -26 20 0 1 124 -29 184 -73 149 -247 210 -399 137z"/>
<path d="M20910 18464 c-89 -173 -161 -317 -159 -318 10 -9 111 -57 114 -54 1
2 28 54 59 116 31 61 58 112 61 112 3 0 62 -28 131 -62 l126 -63 -5 -75 c-3
-51 -12 -93 -30 -133 l-26 -57 50 -25 c27 -14 54 -23 58 -20 5 3 24 40 42 83
23 56 32 94 34 141 l1 64 43 13 c86 25 150 115 151 212 0 63 -35 140 -77 170
-16 11 -114 63 -219 115 l-191 96 -163 -315z m359 71 c132 -67 151 -85 151
-141 0 -34 -51 -84 -84 -84 -31 0 -286 125 -286 140 0 20 70 150 81 150 6 0
68 -29 138 -65z"/>
<path d="M21729 18043 l-175 -309 279 -158 c153 -87 280 -156 282 -154 1 1 16
28 33 58 l30 55 -224 125 c-123 69 -224 128 -224 131 0 4 19 41 43 82 l43 76
178 -101 c98 -55 179 -98 180 -96 15 20 57 100 54 103 -2 2 -80 47 -173 100
-93 52 -171 97 -173 100 -3 3 46 98 63 123 1 1 98 -52 215 -118 117 -67 213
-120 215 -118 1 2 16 28 33 58 l31 55 -252 142 c-139 78 -259 145 -268 148
-13 5 -53 -60 -190 -302z"/>
<path d="M22690 17771 c-46 -24 -90 -87 -97 -139 -8 -62 26 -122 137 -237 113
-117 130 -140 130 -177 0 -31 -32 -58 -70 -58 -40 0 -125 47 -164 90 -40 45
-53 81 -39 113 10 21 -6 35 -115 101 -17 10 -42 -51 -42 -102 0 -94 108 -220
247 -289 69 -34 85 -38 154 -38 71 0 80 2 116 31 53 42 86 108 78 157 -10 65
-42 113 -149 225 -127 132 -135 145 -109 181 27 36 81 40 131 10 87 -52 129
-120 104 -166 -9 -15 -1 -24 56 -60 l67 -42 17 32 c21 39 23 106 4 152 -32 76
-162 180 -275 220 -60 21 -138 19 -181 -4z"/>
<path d="M23494 17270 c-43 -14 -111 -90 -120 -134 -14 -77 18 -139 144 -280
110 -122 127 -179 62 -206 -44 -18 -110 10 -178 75 -53 52 -54 53 -51 105 l3
53 -61 44 -62 44 -17 -32 c-23 -46 -21 -119 7 -176 54 -114 233 -241 354 -251
148 -12 249 130 185 262 -12 25 -66 96 -121 158 -55 61 -102 122 -105 134 -8
31 10 60 45 72 25 9 38 6 80 -14 27 -14 66 -44 87 -66 34 -38 36 -44 31 -89
l-6 -48 51 -36 c70 -51 72 -51 93 -6 40 89 -2 196 -109 282 -112 91 -234 133
-312 109z"/>
<path d="M24255 16666 c-148 -47 -248 -159 -275 -308 -20 -109 13 -212 93
-286 65 -59 107 -75 202 -76 66 0 90 4 138 26 157 73 251 241 225 404 -12 76
-38 123 -97 176 -78 71 -188 95 -286 64z m182 -147 c46 -28 73 -85 73 -151 -1
-130 -110 -241 -236 -241 -100 0 -164 69 -164 176 0 173 192 299 327 216z"/>
<path d="M2610 15696 c0 -3 14 -105 30 -228 367 -2701 1456 -5234 3167 -7363
573 -713 1245 -1408 1948 -2010 1938 -1663 4301 -2813 6804 -3311 643 -128
1259 -209 1981 -260 303 -22 1304 -30 1639 -15 1923 92 3691 510 5451 1289
259 115 873 422 1135 568 662 368 1360 830 1948 1287 1061 827 2017 1803 2818
2877 1423 1907 2366 4110 2764 6454 40 234 88 573 83 584 -2 5 -3328 -2115
-7391 -4710 -4064 -2595 -7392 -4718 -7397 -4718 -5 0 -3360 2140 -7457 4756
-8700 5556 -7523 4805 -7523 4800z"/>
</g>
</svg>
